<svg xmlns="http://www.w3.org/2000/svg" width="692.504" height="692.277" viewBox="0 0 692.504 692.277">
  <g id="Group_16460" data-name="Group 16460" transform="translate(0 159.547) rotate(-17)" opacity="0.55">
    <g id="chart-pie-alt_1_" data-name="chart-pie-alt (1)" transform="translate(0 0)" opacity="0.28">
      <path id="Path_820" data-name="Path 820" d="M18.713,12H14a2,2,0,0,1-2-2V5.274a3,3,0,0,0-1.166-2.383,2.871,2.871,0,0,0-2.481-.534,10.969,10.969,0,1,0,13.287,13.3,2.876,2.876,0,0,0-.533-2.485A3.055,3.055,0,0,0,18.713,12Zm.988,3.168A8.969,8.969,0,1,1,8.842,4.3a.871.871,0,0,1,.764.172,1.016,1.016,0,0,1,.4.806V10a4,4,0,0,0,4,4h4.712a1.041,1.041,0,0,1,.816.4.884.884,0,0,1,.166.768Z" transform="translate(-0.027 -0.3)" fill="#bbc1d2"/>
      <path id="Path_821" data-name="Path 821" d="M23.651,7.446A10.073,10.073,0,0,0,16.582.372,2.1,2.1,0,0,0,16.038.3a2,2,0,0,0-2.019,2V7a3,3,0,0,0,3,3h4.719a2.008,2.008,0,0,0,1.913-2.554ZM21.153,8H17.015a1,1,0,0,1-1-1l-.008-4.693a.048.048,0,0,1,.025-.009h.026A8.072,8.072,0,0,1,21.734,8Z" transform="translate(-0.027 -0.3)" fill="#bbc1d2"/>
    </g>
    <g id="chart-pie-alt_1_2" data-name="chart-pie-alt (1)" transform="translate(87 0)" opacity="0.28">
      <path id="Path_820-2" data-name="Path 820" d="M18.713,12H14a2,2,0,0,1-2-2V5.274a3,3,0,0,0-1.166-2.383,2.871,2.871,0,0,0-2.481-.534,10.969,10.969,0,1,0,13.287,13.3,2.876,2.876,0,0,0-.533-2.485A3.055,3.055,0,0,0,18.713,12Zm.988,3.168A8.969,8.969,0,1,1,8.842,4.3a.871.871,0,0,1,.764.172,1.016,1.016,0,0,1,.4.806V10a4,4,0,0,0,4,4h4.712a1.041,1.041,0,0,1,.816.4.884.884,0,0,1,.166.768Z" transform="translate(-0.027 -0.3)" fill="#bbc1d2"/>
      <path id="Path_821-2" data-name="Path 821" d="M23.651,7.446A10.073,10.073,0,0,0,16.582.372,2.1,2.1,0,0,0,16.038.3a2,2,0,0,0-2.019,2V7a3,3,0,0,0,3,3h4.719a2.008,2.008,0,0,0,1.913-2.554ZM21.153,8H17.015a1,1,0,0,1-1-1l-.008-4.693a.048.048,0,0,1,.025-.009h.026A8.072,8.072,0,0,1,21.734,8Z" transform="translate(-0.027 -0.3)" fill="#bbc1d2"/>
    </g>
    <g id="chart-pie-alt_1_3" data-name="chart-pie-alt (1)" transform="translate(174 0)" opacity="0.28">
      <path id="Path_820-3" data-name="Path 820" d="M18.713,12H14a2,2,0,0,1-2-2V5.274a3,3,0,0,0-1.166-2.383,2.871,2.871,0,0,0-2.481-.534,10.969,10.969,0,1,0,13.287,13.3,2.876,2.876,0,0,0-.533-2.485A3.055,3.055,0,0,0,18.713,12Zm.988,3.168A8.969,8.969,0,1,1,8.842,4.3a.871.871,0,0,1,.764.172,1.016,1.016,0,0,1,.4.806V10a4,4,0,0,0,4,4h4.712a1.041,1.041,0,0,1,.816.4.884.884,0,0,1,.166.768Z" transform="translate(-0.027 -0.3)" fill="#bbc1d2"/>
      <path id="Path_821-3" data-name="Path 821" d="M23.651,7.446A10.073,10.073,0,0,0,16.582.372,2.1,2.1,0,0,0,16.038.3a2,2,0,0,0-2.019,2V7a3,3,0,0,0,3,3h4.719a2.008,2.008,0,0,0,1.913-2.554ZM21.153,8H17.015a1,1,0,0,1-1-1l-.008-4.693a.048.048,0,0,1,.025-.009h.026A8.072,8.072,0,0,1,21.734,8Z" transform="translate(-0.027 -0.3)" fill="#bbc1d2"/>
    </g>
    <g id="chart-pie-alt_1_4" data-name="chart-pie-alt (1)" transform="translate(261 0)" opacity="0.28">
      <path id="Path_820-4" data-name="Path 820" d="M18.713,12H14a2,2,0,0,1-2-2V5.274a3,3,0,0,0-1.166-2.383,2.871,2.871,0,0,0-2.481-.534,10.969,10.969,0,1,0,13.287,13.3,2.876,2.876,0,0,0-.533-2.485A3.055,3.055,0,0,0,18.713,12Zm.988,3.168A8.969,8.969,0,1,1,8.842,4.3a.871.871,0,0,1,.764.172,1.016,1.016,0,0,1,.4.806V10a4,4,0,0,0,4,4h4.712a1.041,1.041,0,0,1,.816.4.884.884,0,0,1,.166.768Z" transform="translate(-0.027 -0.3)" fill="#bbc1d2"/>
      <path id="Path_821-4" data-name="Path 821" d="M23.651,7.446A10.073,10.073,0,0,0,16.582.372,2.1,2.1,0,0,0,16.038.3a2,2,0,0,0-2.019,2V7a3,3,0,0,0,3,3h4.719a2.008,2.008,0,0,0,1.913-2.554ZM21.153,8H17.015a1,1,0,0,1-1-1l-.008-4.693a.048.048,0,0,1,.025-.009h.026A8.072,8.072,0,0,1,21.734,8Z" transform="translate(-0.027 -0.3)" fill="#bbc1d2"/>
    </g>
    <g id="chart-pie-alt_1_5" data-name="chart-pie-alt (1)" transform="translate(348 0)" opacity="0.28">
      <path id="Path_820-5" data-name="Path 820" d="M18.713,12H14a2,2,0,0,1-2-2V5.274a3,3,0,0,0-1.166-2.383,2.871,2.871,0,0,0-2.481-.534,10.969,10.969,0,1,0,13.287,13.3,2.876,2.876,0,0,0-.533-2.485A3.055,3.055,0,0,0,18.713,12Zm.988,3.168A8.969,8.969,0,1,1,8.842,4.3a.871.871,0,0,1,.764.172,1.016,1.016,0,0,1,.4.806V10a4,4,0,0,0,4,4h4.712a1.041,1.041,0,0,1,.816.4.884.884,0,0,1,.166.768Z" transform="translate(-0.027 -0.3)" fill="#bbc1d2"/>
      <path id="Path_821-5" data-name="Path 821" d="M23.651,7.446A10.073,10.073,0,0,0,16.582.372,2.1,2.1,0,0,0,16.038.3a2,2,0,0,0-2.019,2V7a3,3,0,0,0,3,3h4.719a2.008,2.008,0,0,0,1.913-2.554ZM21.153,8H17.015a1,1,0,0,1-1-1l-.008-4.693a.048.048,0,0,1,.025-.009h.026A8.072,8.072,0,0,1,21.734,8Z" transform="translate(-0.027 -0.3)" fill="#bbc1d2"/>
    </g>
    <g id="chart-pie-alt_1_6" data-name="chart-pie-alt (1)" transform="translate(435 0)" opacity="0.28">
      <path id="Path_820-6" data-name="Path 820" d="M18.713,12H14a2,2,0,0,1-2-2V5.274a3,3,0,0,0-1.166-2.383,2.871,2.871,0,0,0-2.481-.534,10.969,10.969,0,1,0,13.287,13.3,2.876,2.876,0,0,0-.533-2.485A3.055,3.055,0,0,0,18.713,12Zm.988,3.168A8.969,8.969,0,1,1,8.842,4.3a.871.871,0,0,1,.764.172,1.016,1.016,0,0,1,.4.806V10a4,4,0,0,0,4,4h4.712a1.041,1.041,0,0,1,.816.4.884.884,0,0,1,.166.768Z" transform="translate(-0.027 -0.3)" fill="#bbc1d2"/>
      <path id="Path_821-6" data-name="Path 821" d="M23.651,7.446A10.073,10.073,0,0,0,16.582.372,2.1,2.1,0,0,0,16.038.3a2,2,0,0,0-2.019,2V7a3,3,0,0,0,3,3h4.719a2.008,2.008,0,0,0,1.913-2.554ZM21.153,8H17.015a1,1,0,0,1-1-1l-.008-4.693a.048.048,0,0,1,.025-.009h.026A8.072,8.072,0,0,1,21.734,8Z" transform="translate(-0.027 -0.3)" fill="#bbc1d2"/>
    </g>
    <g id="chart-pie-alt_1_7" data-name="chart-pie-alt (1)" transform="translate(522 0)" opacity="0.28">
      <path id="Path_820-7" data-name="Path 820" d="M18.713,12H14a2,2,0,0,1-2-2V5.274a3,3,0,0,0-1.166-2.383,2.871,2.871,0,0,0-2.481-.534,10.969,10.969,0,1,0,13.287,13.3,2.876,2.876,0,0,0-.533-2.485A3.055,3.055,0,0,0,18.713,12Zm.988,3.168A8.969,8.969,0,1,1,8.842,4.3a.871.871,0,0,1,.764.172,1.016,1.016,0,0,1,.4.806V10a4,4,0,0,0,4,4h4.712a1.041,1.041,0,0,1,.816.4.884.884,0,0,1,.166.768Z" transform="translate(-0.027 -0.3)" fill="#bbc1d2"/>
      <path id="Path_821-7" data-name="Path 821" d="M23.651,7.446A10.073,10.073,0,0,0,16.582.372,2.1,2.1,0,0,0,16.038.3a2,2,0,0,0-2.019,2V7a3,3,0,0,0,3,3h4.719a2.008,2.008,0,0,0,1.913-2.554ZM21.153,8H17.015a1,1,0,0,1-1-1l-.008-4.693a.048.048,0,0,1,.025-.009h.026A8.072,8.072,0,0,1,21.734,8Z" transform="translate(-0.027 -0.3)" fill="#bbc1d2"/>
    </g>
    <g id="chart-pie-alt_1_8" data-name="chart-pie-alt (1)" transform="translate(87 112)" opacity="0.28">
      <path id="Path_820-8" data-name="Path 820" d="M18.713,12H14a2,2,0,0,1-2-2V5.274a3,3,0,0,0-1.166-2.383,2.871,2.871,0,0,0-2.481-.534,10.969,10.969,0,1,0,13.287,13.3,2.876,2.876,0,0,0-.533-2.485A3.055,3.055,0,0,0,18.713,12Zm.988,3.168A8.969,8.969,0,1,1,8.842,4.3a.871.871,0,0,1,.764.172,1.016,1.016,0,0,1,.4.806V10a4,4,0,0,0,4,4h4.712a1.041,1.041,0,0,1,.816.4.884.884,0,0,1,.166.768Z" transform="translate(-0.027 -0.3)" fill="#bbc1d2"/>
      <path id="Path_821-8" data-name="Path 821" d="M23.651,7.446A10.073,10.073,0,0,0,16.582.372,2.1,2.1,0,0,0,16.038.3a2,2,0,0,0-2.019,2V7a3,3,0,0,0,3,3h4.719a2.008,2.008,0,0,0,1.913-2.554ZM21.153,8H17.015a1,1,0,0,1-1-1l-.008-4.693a.048.048,0,0,1,.025-.009h.026A8.072,8.072,0,0,1,21.734,8Z" transform="translate(-0.027 -0.3)" fill="#bbc1d2"/>
    </g>
    <g id="chart-pie-alt_1_9" data-name="chart-pie-alt (1)" transform="translate(174 112)" opacity="0.28">
      <path id="Path_820-9" data-name="Path 820" d="M18.713,12H14a2,2,0,0,1-2-2V5.274a3,3,0,0,0-1.166-2.383,2.871,2.871,0,0,0-2.481-.534,10.969,10.969,0,1,0,13.287,13.3,2.876,2.876,0,0,0-.533-2.485A3.055,3.055,0,0,0,18.713,12Zm.988,3.168A8.969,8.969,0,1,1,8.842,4.3a.871.871,0,0,1,.764.172,1.016,1.016,0,0,1,.4.806V10a4,4,0,0,0,4,4h4.712a1.041,1.041,0,0,1,.816.4.884.884,0,0,1,.166.768Z" transform="translate(-0.027 -0.3)" fill="#bbc1d2"/>
      <path id="Path_821-9" data-name="Path 821" d="M23.651,7.446A10.073,10.073,0,0,0,16.582.372,2.1,2.1,0,0,0,16.038.3a2,2,0,0,0-2.019,2V7a3,3,0,0,0,3,3h4.719a2.008,2.008,0,0,0,1.913-2.554ZM21.153,8H17.015a1,1,0,0,1-1-1l-.008-4.693a.048.048,0,0,1,.025-.009h.026A8.072,8.072,0,0,1,21.734,8Z" transform="translate(-0.027 -0.3)" fill="#bbc1d2"/>
    </g>
    <g id="chart-pie-alt_1_10" data-name="chart-pie-alt (1)" transform="translate(261 112)" opacity="0.28">
      <path id="Path_820-10" data-name="Path 820" d="M18.713,12H14a2,2,0,0,1-2-2V5.274a3,3,0,0,0-1.166-2.383,2.871,2.871,0,0,0-2.481-.534,10.969,10.969,0,1,0,13.287,13.3,2.876,2.876,0,0,0-.533-2.485A3.055,3.055,0,0,0,18.713,12Zm.988,3.168A8.969,8.969,0,1,1,8.842,4.3a.871.871,0,0,1,.764.172,1.016,1.016,0,0,1,.4.806V10a4,4,0,0,0,4,4h4.712a1.041,1.041,0,0,1,.816.4.884.884,0,0,1,.166.768Z" transform="translate(-0.027 -0.3)" fill="#bbc1d2"/>
      <path id="Path_821-10" data-name="Path 821" d="M23.651,7.446A10.073,10.073,0,0,0,16.582.372,2.1,2.1,0,0,0,16.038.3a2,2,0,0,0-2.019,2V7a3,3,0,0,0,3,3h4.719a2.008,2.008,0,0,0,1.913-2.554ZM21.153,8H17.015a1,1,0,0,1-1-1l-.008-4.693a.048.048,0,0,1,.025-.009h.026A8.072,8.072,0,0,1,21.734,8Z" transform="translate(-0.027 -0.3)" fill="#bbc1d2"/>
    </g>
    <g id="chart-pie-alt_1_11" data-name="chart-pie-alt (1)" transform="translate(348 112)" opacity="0.28">
      <path id="Path_820-11" data-name="Path 820" d="M18.713,12H14a2,2,0,0,1-2-2V5.274a3,3,0,0,0-1.166-2.383,2.871,2.871,0,0,0-2.481-.534,10.969,10.969,0,1,0,13.287,13.3,2.876,2.876,0,0,0-.533-2.485A3.055,3.055,0,0,0,18.713,12Zm.988,3.168A8.969,8.969,0,1,1,8.842,4.3a.871.871,0,0,1,.764.172,1.016,1.016,0,0,1,.4.806V10a4,4,0,0,0,4,4h4.712a1.041,1.041,0,0,1,.816.4.884.884,0,0,1,.166.768Z" transform="translate(-0.027 -0.3)" fill="#bbc1d2"/>
      <path id="Path_821-11" data-name="Path 821" d="M23.651,7.446A10.073,10.073,0,0,0,16.582.372,2.1,2.1,0,0,0,16.038.3a2,2,0,0,0-2.019,2V7a3,3,0,0,0,3,3h4.719a2.008,2.008,0,0,0,1.913-2.554ZM21.153,8H17.015a1,1,0,0,1-1-1l-.008-4.693a.048.048,0,0,1,.025-.009h.026A8.072,8.072,0,0,1,21.734,8Z" transform="translate(-0.027 -0.3)" fill="#bbc1d2"/>
    </g>
    <g id="chart-pie-alt_1_12" data-name="chart-pie-alt (1)" transform="translate(435 112)" opacity="0.28">
      <path id="Path_820-12" data-name="Path 820" d="M18.713,12H14a2,2,0,0,1-2-2V5.274a3,3,0,0,0-1.166-2.383,2.871,2.871,0,0,0-2.481-.534,10.969,10.969,0,1,0,13.287,13.3,2.876,2.876,0,0,0-.533-2.485A3.055,3.055,0,0,0,18.713,12Zm.988,3.168A8.969,8.969,0,1,1,8.842,4.3a.871.871,0,0,1,.764.172,1.016,1.016,0,0,1,.4.806V10a4,4,0,0,0,4,4h4.712a1.041,1.041,0,0,1,.816.4.884.884,0,0,1,.166.768Z" transform="translate(-0.027 -0.3)" fill="#bbc1d2"/>
      <path id="Path_821-12" data-name="Path 821" d="M23.651,7.446A10.073,10.073,0,0,0,16.582.372,2.1,2.1,0,0,0,16.038.3a2,2,0,0,0-2.019,2V7a3,3,0,0,0,3,3h4.719a2.008,2.008,0,0,0,1.913-2.554ZM21.153,8H17.015a1,1,0,0,1-1-1l-.008-4.693a.048.048,0,0,1,.025-.009h.026A8.072,8.072,0,0,1,21.734,8Z" transform="translate(-0.027 -0.3)" fill="#bbc1d2"/>
    </g>
    <g id="chart-pie-alt_1_13" data-name="chart-pie-alt (1)" transform="translate(522 112)" opacity="0.28">
      <path id="Path_820-13" data-name="Path 820" d="M18.713,12H14a2,2,0,0,1-2-2V5.274a3,3,0,0,0-1.166-2.383,2.871,2.871,0,0,0-2.481-.534,10.969,10.969,0,1,0,13.287,13.3,2.876,2.876,0,0,0-.533-2.485A3.055,3.055,0,0,0,18.713,12Zm.988,3.168A8.969,8.969,0,1,1,8.842,4.3a.871.871,0,0,1,.764.172,1.016,1.016,0,0,1,.4.806V10a4,4,0,0,0,4,4h4.712a1.041,1.041,0,0,1,.816.4.884.884,0,0,1,.166.768Z" transform="translate(-0.027 -0.3)" fill="#bbc1d2"/>
      <path id="Path_821-13" data-name="Path 821" d="M23.651,7.446A10.073,10.073,0,0,0,16.582.372,2.1,2.1,0,0,0,16.038.3a2,2,0,0,0-2.019,2V7a3,3,0,0,0,3,3h4.719a2.008,2.008,0,0,0,1.913-2.554ZM21.153,8H17.015a1,1,0,0,1-1-1l-.008-4.693a.048.048,0,0,1,.025-.009h.026A8.072,8.072,0,0,1,21.734,8Z" transform="translate(-0.027 -0.3)" fill="#bbc1d2"/>
    </g>
    <g id="chart-pie-alt_1_14" data-name="chart-pie-alt (1)" transform="translate(87 224)" opacity="0.28">
      <path id="Path_820-14" data-name="Path 820" d="M18.713,12H14a2,2,0,0,1-2-2V5.274a3,3,0,0,0-1.166-2.383,2.871,2.871,0,0,0-2.481-.534,10.969,10.969,0,1,0,13.287,13.3,2.876,2.876,0,0,0-.533-2.485A3.055,3.055,0,0,0,18.713,12Zm.988,3.168A8.969,8.969,0,1,1,8.842,4.3a.871.871,0,0,1,.764.172,1.016,1.016,0,0,1,.4.806V10a4,4,0,0,0,4,4h4.712a1.041,1.041,0,0,1,.816.4.884.884,0,0,1,.166.768Z" transform="translate(-0.027 -0.3)" fill="#bbc1d2"/>
      <path id="Path_821-14" data-name="Path 821" d="M23.651,7.446A10.073,10.073,0,0,0,16.582.372,2.1,2.1,0,0,0,16.038.3a2,2,0,0,0-2.019,2V7a3,3,0,0,0,3,3h4.719a2.008,2.008,0,0,0,1.913-2.554ZM21.153,8H17.015a1,1,0,0,1-1-1l-.008-4.693a.048.048,0,0,1,.025-.009h.026A8.072,8.072,0,0,1,21.734,8Z" transform="translate(-0.027 -0.3)" fill="#bbc1d2"/>
    </g>
    <g id="chart-pie-alt_1_15" data-name="chart-pie-alt (1)" transform="translate(174 224)" opacity="0.28">
      <path id="Path_820-15" data-name="Path 820" d="M18.713,12H14a2,2,0,0,1-2-2V5.274a3,3,0,0,0-1.166-2.383,2.871,2.871,0,0,0-2.481-.534,10.969,10.969,0,1,0,13.287,13.3,2.876,2.876,0,0,0-.533-2.485A3.055,3.055,0,0,0,18.713,12Zm.988,3.168A8.969,8.969,0,1,1,8.842,4.3a.871.871,0,0,1,.764.172,1.016,1.016,0,0,1,.4.806V10a4,4,0,0,0,4,4h4.712a1.041,1.041,0,0,1,.816.4.884.884,0,0,1,.166.768Z" transform="translate(-0.027 -0.3)" fill="#bbc1d2"/>
      <path id="Path_821-15" data-name="Path 821" d="M23.651,7.446A10.073,10.073,0,0,0,16.582.372,2.1,2.1,0,0,0,16.038.3a2,2,0,0,0-2.019,2V7a3,3,0,0,0,3,3h4.719a2.008,2.008,0,0,0,1.913-2.554ZM21.153,8H17.015a1,1,0,0,1-1-1l-.008-4.693a.048.048,0,0,1,.025-.009h.026A8.072,8.072,0,0,1,21.734,8Z" transform="translate(-0.027 -0.3)" fill="#bbc1d2"/>
    </g>
    <g id="chart-pie-alt_1_16" data-name="chart-pie-alt (1)" transform="translate(261 224)" opacity="0.28">
      <path id="Path_820-16" data-name="Path 820" d="M18.713,12H14a2,2,0,0,1-2-2V5.274a3,3,0,0,0-1.166-2.383,2.871,2.871,0,0,0-2.481-.534,10.969,10.969,0,1,0,13.287,13.3,2.876,2.876,0,0,0-.533-2.485A3.055,3.055,0,0,0,18.713,12Zm.988,3.168A8.969,8.969,0,1,1,8.842,4.3a.871.871,0,0,1,.764.172,1.016,1.016,0,0,1,.4.806V10a4,4,0,0,0,4,4h4.712a1.041,1.041,0,0,1,.816.4.884.884,0,0,1,.166.768Z" transform="translate(-0.027 -0.3)" fill="#bbc1d2"/>
      <path id="Path_821-16" data-name="Path 821" d="M23.651,7.446A10.073,10.073,0,0,0,16.582.372,2.1,2.1,0,0,0,16.038.3a2,2,0,0,0-2.019,2V7a3,3,0,0,0,3,3h4.719a2.008,2.008,0,0,0,1.913-2.554ZM21.153,8H17.015a1,1,0,0,1-1-1l-.008-4.693a.048.048,0,0,1,.025-.009h.026A8.072,8.072,0,0,1,21.734,8Z" transform="translate(-0.027 -0.3)" fill="#bbc1d2"/>
    </g>
    <g id="chart-pie-alt_1_17" data-name="chart-pie-alt (1)" transform="translate(348 224)" opacity="0.28">
      <path id="Path_820-17" data-name="Path 820" d="M18.713,12H14a2,2,0,0,1-2-2V5.274a3,3,0,0,0-1.166-2.383,2.871,2.871,0,0,0-2.481-.534,10.969,10.969,0,1,0,13.287,13.3,2.876,2.876,0,0,0-.533-2.485A3.055,3.055,0,0,0,18.713,12Zm.988,3.168A8.969,8.969,0,1,1,8.842,4.3a.871.871,0,0,1,.764.172,1.016,1.016,0,0,1,.4.806V10a4,4,0,0,0,4,4h4.712a1.041,1.041,0,0,1,.816.4.884.884,0,0,1,.166.768Z" transform="translate(-0.027 -0.3)" fill="#bbc1d2"/>
      <path id="Path_821-17" data-name="Path 821" d="M23.651,7.446A10.073,10.073,0,0,0,16.582.372,2.1,2.1,0,0,0,16.038.3a2,2,0,0,0-2.019,2V7a3,3,0,0,0,3,3h4.719a2.008,2.008,0,0,0,1.913-2.554ZM21.153,8H17.015a1,1,0,0,1-1-1l-.008-4.693a.048.048,0,0,1,.025-.009h.026A8.072,8.072,0,0,1,21.734,8Z" transform="translate(-0.027 -0.3)" fill="#bbc1d2"/>
    </g>
    <g id="chart-pie-alt_1_18" data-name="chart-pie-alt (1)" transform="translate(435 224)" opacity="0.28">
      <path id="Path_820-18" data-name="Path 820" d="M18.713,12H14a2,2,0,0,1-2-2V5.274a3,3,0,0,0-1.166-2.383,2.871,2.871,0,0,0-2.481-.534,10.969,10.969,0,1,0,13.287,13.3,2.876,2.876,0,0,0-.533-2.485A3.055,3.055,0,0,0,18.713,12Zm.988,3.168A8.969,8.969,0,1,1,8.842,4.3a.871.871,0,0,1,.764.172,1.016,1.016,0,0,1,.4.806V10a4,4,0,0,0,4,4h4.712a1.041,1.041,0,0,1,.816.4.884.884,0,0,1,.166.768Z" transform="translate(-0.027 -0.3)" fill="#bbc1d2"/>
      <path id="Path_821-18" data-name="Path 821" d="M23.651,7.446A10.073,10.073,0,0,0,16.582.372,2.1,2.1,0,0,0,16.038.3a2,2,0,0,0-2.019,2V7a3,3,0,0,0,3,3h4.719a2.008,2.008,0,0,0,1.913-2.554ZM21.153,8H17.015a1,1,0,0,1-1-1l-.008-4.693a.048.048,0,0,1,.025-.009h.026A8.072,8.072,0,0,1,21.734,8Z" transform="translate(-0.027 -0.3)" fill="#bbc1d2"/>
    </g>
    <g id="chart-pie-alt_1_19" data-name="chart-pie-alt (1)" transform="translate(522 224)" opacity="0.28">
      <path id="Path_820-19" data-name="Path 820" d="M18.713,12H14a2,2,0,0,1-2-2V5.274a3,3,0,0,0-1.166-2.383,2.871,2.871,0,0,0-2.481-.534,10.969,10.969,0,1,0,13.287,13.3,2.876,2.876,0,0,0-.533-2.485A3.055,3.055,0,0,0,18.713,12Zm.988,3.168A8.969,8.969,0,1,1,8.842,4.3a.871.871,0,0,1,.764.172,1.016,1.016,0,0,1,.4.806V10a4,4,0,0,0,4,4h4.712a1.041,1.041,0,0,1,.816.4.884.884,0,0,1,.166.768Z" transform="translate(-0.027 -0.3)" fill="#bbc1d2"/>
      <path id="Path_821-19" data-name="Path 821" d="M23.651,7.446A10.073,10.073,0,0,0,16.582.372,2.1,2.1,0,0,0,16.038.3a2,2,0,0,0-2.019,2V7a3,3,0,0,0,3,3h4.719a2.008,2.008,0,0,0,1.913-2.554ZM21.153,8H17.015a1,1,0,0,1-1-1l-.008-4.693a.048.048,0,0,1,.025-.009h.026A8.072,8.072,0,0,1,21.734,8Z" transform="translate(-0.027 -0.3)" fill="#bbc1d2"/>
    </g>
    <g id="chart-pie-alt_1_20" data-name="chart-pie-alt (1)" transform="translate(87 336)" opacity="0.28">
      <path id="Path_820-20" data-name="Path 820" d="M18.713,12H14a2,2,0,0,1-2-2V5.274a3,3,0,0,0-1.166-2.383,2.871,2.871,0,0,0-2.481-.534,10.969,10.969,0,1,0,13.287,13.3,2.876,2.876,0,0,0-.533-2.485A3.055,3.055,0,0,0,18.713,12Zm.988,3.168A8.969,8.969,0,1,1,8.842,4.3a.871.871,0,0,1,.764.172,1.016,1.016,0,0,1,.4.806V10a4,4,0,0,0,4,4h4.712a1.041,1.041,0,0,1,.816.4.884.884,0,0,1,.166.768Z" transform="translate(-0.027 -0.3)" fill="#bbc1d2"/>
      <path id="Path_821-20" data-name="Path 821" d="M23.651,7.446A10.073,10.073,0,0,0,16.582.372,2.1,2.1,0,0,0,16.038.3a2,2,0,0,0-2.019,2V7a3,3,0,0,0,3,3h4.719a2.008,2.008,0,0,0,1.913-2.554ZM21.153,8H17.015a1,1,0,0,1-1-1l-.008-4.693a.048.048,0,0,1,.025-.009h.026A8.072,8.072,0,0,1,21.734,8Z" transform="translate(-0.027 -0.3)" fill="#bbc1d2"/>
    </g>
    <g id="chart-pie-alt_1_21" data-name="chart-pie-alt (1)" transform="translate(174 336)" opacity="0.28">
      <path id="Path_820-21" data-name="Path 820" d="M18.713,12H14a2,2,0,0,1-2-2V5.274a3,3,0,0,0-1.166-2.383,2.871,2.871,0,0,0-2.481-.534,10.969,10.969,0,1,0,13.287,13.3,2.876,2.876,0,0,0-.533-2.485A3.055,3.055,0,0,0,18.713,12Zm.988,3.168A8.969,8.969,0,1,1,8.842,4.3a.871.871,0,0,1,.764.172,1.016,1.016,0,0,1,.4.806V10a4,4,0,0,0,4,4h4.712a1.041,1.041,0,0,1,.816.4.884.884,0,0,1,.166.768Z" transform="translate(-0.027 -0.3)" fill="#bbc1d2"/>
      <path id="Path_821-21" data-name="Path 821" d="M23.651,7.446A10.073,10.073,0,0,0,16.582.372,2.1,2.1,0,0,0,16.038.3a2,2,0,0,0-2.019,2V7a3,3,0,0,0,3,3h4.719a2.008,2.008,0,0,0,1.913-2.554ZM21.153,8H17.015a1,1,0,0,1-1-1l-.008-4.693a.048.048,0,0,1,.025-.009h.026A8.072,8.072,0,0,1,21.734,8Z" transform="translate(-0.027 -0.3)" fill="#bbc1d2"/>
    </g>
    <g id="chart-pie-alt_1_22" data-name="chart-pie-alt (1)" transform="translate(261 336)" opacity="0.28">
      <path id="Path_820-22" data-name="Path 820" d="M18.713,12H14a2,2,0,0,1-2-2V5.274a3,3,0,0,0-1.166-2.383,2.871,2.871,0,0,0-2.481-.534,10.969,10.969,0,1,0,13.287,13.3,2.876,2.876,0,0,0-.533-2.485A3.055,3.055,0,0,0,18.713,12Zm.988,3.168A8.969,8.969,0,1,1,8.842,4.3a.871.871,0,0,1,.764.172,1.016,1.016,0,0,1,.4.806V10a4,4,0,0,0,4,4h4.712a1.041,1.041,0,0,1,.816.4.884.884,0,0,1,.166.768Z" transform="translate(-0.027 -0.3)" fill="#bbc1d2"/>
      <path id="Path_821-22" data-name="Path 821" d="M23.651,7.446A10.073,10.073,0,0,0,16.582.372,2.1,2.1,0,0,0,16.038.3a2,2,0,0,0-2.019,2V7a3,3,0,0,0,3,3h4.719a2.008,2.008,0,0,0,1.913-2.554ZM21.153,8H17.015a1,1,0,0,1-1-1l-.008-4.693a.048.048,0,0,1,.025-.009h.026A8.072,8.072,0,0,1,21.734,8Z" transform="translate(-0.027 -0.3)" fill="#bbc1d2"/>
    </g>
    <g id="chart-pie-alt_1_23" data-name="chart-pie-alt (1)" transform="translate(348 336)" opacity="0.28">
      <path id="Path_820-23" data-name="Path 820" d="M18.713,12H14a2,2,0,0,1-2-2V5.274a3,3,0,0,0-1.166-2.383,2.871,2.871,0,0,0-2.481-.534,10.969,10.969,0,1,0,13.287,13.3,2.876,2.876,0,0,0-.533-2.485A3.055,3.055,0,0,0,18.713,12Zm.988,3.168A8.969,8.969,0,1,1,8.842,4.3a.871.871,0,0,1,.764.172,1.016,1.016,0,0,1,.4.806V10a4,4,0,0,0,4,4h4.712a1.041,1.041,0,0,1,.816.4.884.884,0,0,1,.166.768Z" transform="translate(-0.027 -0.3)" fill="#bbc1d2"/>
      <path id="Path_821-23" data-name="Path 821" d="M23.651,7.446A10.073,10.073,0,0,0,16.582.372,2.1,2.1,0,0,0,16.038.3a2,2,0,0,0-2.019,2V7a3,3,0,0,0,3,3h4.719a2.008,2.008,0,0,0,1.913-2.554ZM21.153,8H17.015a1,1,0,0,1-1-1l-.008-4.693a.048.048,0,0,1,.025-.009h.026A8.072,8.072,0,0,1,21.734,8Z" transform="translate(-0.027 -0.3)" fill="#bbc1d2"/>
    </g>
    <g id="chart-pie-alt_1_24" data-name="chart-pie-alt (1)" transform="translate(435 336)" opacity="0.28">
      <path id="Path_820-24" data-name="Path 820" d="M18.713,12H14a2,2,0,0,1-2-2V5.274a3,3,0,0,0-1.166-2.383,2.871,2.871,0,0,0-2.481-.534,10.969,10.969,0,1,0,13.287,13.3,2.876,2.876,0,0,0-.533-2.485A3.055,3.055,0,0,0,18.713,12Zm.988,3.168A8.969,8.969,0,1,1,8.842,4.3a.871.871,0,0,1,.764.172,1.016,1.016,0,0,1,.4.806V10a4,4,0,0,0,4,4h4.712a1.041,1.041,0,0,1,.816.4.884.884,0,0,1,.166.768Z" transform="translate(-0.027 -0.3)" fill="#bbc1d2"/>
      <path id="Path_821-24" data-name="Path 821" d="M23.651,7.446A10.073,10.073,0,0,0,16.582.372,2.1,2.1,0,0,0,16.038.3a2,2,0,0,0-2.019,2V7a3,3,0,0,0,3,3h4.719a2.008,2.008,0,0,0,1.913-2.554ZM21.153,8H17.015a1,1,0,0,1-1-1l-.008-4.693a.048.048,0,0,1,.025-.009h.026A8.072,8.072,0,0,1,21.734,8Z" transform="translate(-0.027 -0.3)" fill="#bbc1d2"/>
    </g>
    <g id="chart-pie-alt_1_25" data-name="chart-pie-alt (1)" transform="translate(522 336)" opacity="0.28">
      <path id="Path_820-25" data-name="Path 820" d="M18.713,12H14a2,2,0,0,1-2-2V5.274a3,3,0,0,0-1.166-2.383,2.871,2.871,0,0,0-2.481-.534,10.969,10.969,0,1,0,13.287,13.3,2.876,2.876,0,0,0-.533-2.485A3.055,3.055,0,0,0,18.713,12Zm.988,3.168A8.969,8.969,0,1,1,8.842,4.3a.871.871,0,0,1,.764.172,1.016,1.016,0,0,1,.4.806V10a4,4,0,0,0,4,4h4.712a1.041,1.041,0,0,1,.816.4.884.884,0,0,1,.166.768Z" transform="translate(-0.027 -0.3)" fill="#bbc1d2"/>
      <path id="Path_821-25" data-name="Path 821" d="M23.651,7.446A10.073,10.073,0,0,0,16.582.372,2.1,2.1,0,0,0,16.038.3a2,2,0,0,0-2.019,2V7a3,3,0,0,0,3,3h4.719a2.008,2.008,0,0,0,1.913-2.554ZM21.153,8H17.015a1,1,0,0,1-1-1l-.008-4.693a.048.048,0,0,1,.025-.009h.026A8.072,8.072,0,0,1,21.734,8Z" transform="translate(-0.027 -0.3)" fill="#bbc1d2"/>
    </g>
    <g id="chart-pie-alt_1_26" data-name="chart-pie-alt (1)" transform="translate(0 448)" opacity="0.28">
      <path id="Path_820-26" data-name="Path 820" d="M18.713,12H14a2,2,0,0,1-2-2V5.274a3,3,0,0,0-1.166-2.383,2.871,2.871,0,0,0-2.481-.534,10.969,10.969,0,1,0,13.287,13.3,2.876,2.876,0,0,0-.533-2.485A3.055,3.055,0,0,0,18.713,12Zm.988,3.168A8.969,8.969,0,1,1,8.842,4.3a.871.871,0,0,1,.764.172,1.016,1.016,0,0,1,.4.806V10a4,4,0,0,0,4,4h4.712a1.041,1.041,0,0,1,.816.4.884.884,0,0,1,.166.768Z" transform="translate(-0.027 -0.3)" fill="#bbc1d2"/>
      <path id="Path_821-26" data-name="Path 821" d="M23.651,7.446A10.073,10.073,0,0,0,16.582.372,2.1,2.1,0,0,0,16.038.3a2,2,0,0,0-2.019,2V7a3,3,0,0,0,3,3h4.719a2.008,2.008,0,0,0,1.913-2.554ZM21.153,8H17.015a1,1,0,0,1-1-1l-.008-4.693a.048.048,0,0,1,.025-.009h.026A8.072,8.072,0,0,1,21.734,8Z" transform="translate(-0.027 -0.3)" fill="#bbc1d2"/>
    </g>
    <g id="chart-pie-alt_1_27" data-name="chart-pie-alt (1)" transform="translate(87 448)" opacity="0.28">
      <path id="Path_820-27" data-name="Path 820" d="M18.713,12H14a2,2,0,0,1-2-2V5.274a3,3,0,0,0-1.166-2.383,2.871,2.871,0,0,0-2.481-.534,10.969,10.969,0,1,0,13.287,13.3,2.876,2.876,0,0,0-.533-2.485A3.055,3.055,0,0,0,18.713,12Zm.988,3.168A8.969,8.969,0,1,1,8.842,4.3a.871.871,0,0,1,.764.172,1.016,1.016,0,0,1,.4.806V10a4,4,0,0,0,4,4h4.712a1.041,1.041,0,0,1,.816.4.884.884,0,0,1,.166.768Z" transform="translate(-0.027 -0.3)" fill="#bbc1d2"/>
      <path id="Path_821-27" data-name="Path 821" d="M23.651,7.446A10.073,10.073,0,0,0,16.582.372,2.1,2.1,0,0,0,16.038.3a2,2,0,0,0-2.019,2V7a3,3,0,0,0,3,3h4.719a2.008,2.008,0,0,0,1.913-2.554ZM21.153,8H17.015a1,1,0,0,1-1-1l-.008-4.693a.048.048,0,0,1,.025-.009h.026A8.072,8.072,0,0,1,21.734,8Z" transform="translate(-0.027 -0.3)" fill="#bbc1d2"/>
    </g>
    <g id="chart-pie-alt_1_28" data-name="chart-pie-alt (1)" transform="translate(261 448)" opacity="0.28">
      <path id="Path_820-28" data-name="Path 820" d="M18.713,12H14a2,2,0,0,1-2-2V5.274a3,3,0,0,0-1.166-2.383,2.871,2.871,0,0,0-2.481-.534,10.969,10.969,0,1,0,13.287,13.3,2.876,2.876,0,0,0-.533-2.485A3.055,3.055,0,0,0,18.713,12Zm.988,3.168A8.969,8.969,0,1,1,8.842,4.3a.871.871,0,0,1,.764.172,1.016,1.016,0,0,1,.4.806V10a4,4,0,0,0,4,4h4.712a1.041,1.041,0,0,1,.816.4.884.884,0,0,1,.166.768Z" transform="translate(-0.027 -0.3)" fill="#bbc1d2"/>
      <path id="Path_821-28" data-name="Path 821" d="M23.651,7.446A10.073,10.073,0,0,0,16.582.372,2.1,2.1,0,0,0,16.038.3a2,2,0,0,0-2.019,2V7a3,3,0,0,0,3,3h4.719a2.008,2.008,0,0,0,1.913-2.554ZM21.153,8H17.015a1,1,0,0,1-1-1l-.008-4.693a.048.048,0,0,1,.025-.009h.026A8.072,8.072,0,0,1,21.734,8Z" transform="translate(-0.027 -0.3)" fill="#bbc1d2"/>
    </g>
    <g id="chart-pie-alt_1_29" data-name="chart-pie-alt (1)" transform="translate(348 448)" opacity="0.28">
      <path id="Path_820-29" data-name="Path 820" d="M18.713,12H14a2,2,0,0,1-2-2V5.274a3,3,0,0,0-1.166-2.383,2.871,2.871,0,0,0-2.481-.534,10.969,10.969,0,1,0,13.287,13.3,2.876,2.876,0,0,0-.533-2.485A3.055,3.055,0,0,0,18.713,12Zm.988,3.168A8.969,8.969,0,1,1,8.842,4.3a.871.871,0,0,1,.764.172,1.016,1.016,0,0,1,.4.806V10a4,4,0,0,0,4,4h4.712a1.041,1.041,0,0,1,.816.4.884.884,0,0,1,.166.768Z" transform="translate(-0.027 -0.3)" fill="#bbc1d2"/>
      <path id="Path_821-29" data-name="Path 821" d="M23.651,7.446A10.073,10.073,0,0,0,16.582.372,2.1,2.1,0,0,0,16.038.3a2,2,0,0,0-2.019,2V7a3,3,0,0,0,3,3h4.719a2.008,2.008,0,0,0,1.913-2.554ZM21.153,8H17.015a1,1,0,0,1-1-1l-.008-4.693a.048.048,0,0,1,.025-.009h.026A8.072,8.072,0,0,1,21.734,8Z" transform="translate(-0.027 -0.3)" fill="#bbc1d2"/>
    </g>
    <g id="chart-pie-alt_1_30" data-name="chart-pie-alt (1)" transform="translate(435 448)" opacity="0.28">
      <path id="Path_820-30" data-name="Path 820" d="M18.713,12H14a2,2,0,0,1-2-2V5.274a3,3,0,0,0-1.166-2.383,2.871,2.871,0,0,0-2.481-.534,10.969,10.969,0,1,0,13.287,13.3,2.876,2.876,0,0,0-.533-2.485A3.055,3.055,0,0,0,18.713,12Zm.988,3.168A8.969,8.969,0,1,1,8.842,4.3a.871.871,0,0,1,.764.172,1.016,1.016,0,0,1,.4.806V10a4,4,0,0,0,4,4h4.712a1.041,1.041,0,0,1,.816.4.884.884,0,0,1,.166.768Z" transform="translate(-0.027 -0.3)" fill="#bbc1d2"/>
      <path id="Path_821-30" data-name="Path 821" d="M23.651,7.446A10.073,10.073,0,0,0,16.582.372,2.1,2.1,0,0,0,16.038.3a2,2,0,0,0-2.019,2V7a3,3,0,0,0,3,3h4.719a2.008,2.008,0,0,0,1.913-2.554ZM21.153,8H17.015a1,1,0,0,1-1-1l-.008-4.693a.048.048,0,0,1,.025-.009h.026A8.072,8.072,0,0,1,21.734,8Z" transform="translate(-0.027 -0.3)" fill="#bbc1d2"/>
    </g>
    <g id="chart-pie-alt_1_31" data-name="chart-pie-alt (1)" transform="translate(522 448)" opacity="0.28">
      <path id="Path_820-31" data-name="Path 820" d="M18.713,12H14a2,2,0,0,1-2-2V5.274a3,3,0,0,0-1.166-2.383,2.871,2.871,0,0,0-2.481-.534,10.969,10.969,0,1,0,13.287,13.3,2.876,2.876,0,0,0-.533-2.485A3.055,3.055,0,0,0,18.713,12Zm.988,3.168A8.969,8.969,0,1,1,8.842,4.3a.871.871,0,0,1,.764.172,1.016,1.016,0,0,1,.4.806V10a4,4,0,0,0,4,4h4.712a1.041,1.041,0,0,1,.816.4.884.884,0,0,1,.166.768Z" transform="translate(-0.027 -0.3)" fill="#bbc1d2"/>
      <path id="Path_821-31" data-name="Path 821" d="M23.651,7.446A10.073,10.073,0,0,0,16.582.372,2.1,2.1,0,0,0,16.038.3a2,2,0,0,0-2.019,2V7a3,3,0,0,0,3,3h4.719a2.008,2.008,0,0,0,1.913-2.554ZM21.153,8H17.015a1,1,0,0,1-1-1l-.008-4.693a.048.048,0,0,1,.025-.009h.026A8.072,8.072,0,0,1,21.734,8Z" transform="translate(-0.027 -0.3)" fill="#bbc1d2"/>
    </g>
    <g id="chart-pie-alt_1_32" data-name="chart-pie-alt (1)" transform="translate(87 560)" opacity="0.28">
      <path id="Path_820-32" data-name="Path 820" d="M18.713,12H14a2,2,0,0,1-2-2V5.274a3,3,0,0,0-1.166-2.383,2.871,2.871,0,0,0-2.481-.534,10.969,10.969,0,1,0,13.287,13.3,2.876,2.876,0,0,0-.533-2.485A3.055,3.055,0,0,0,18.713,12Zm.988,3.168A8.969,8.969,0,1,1,8.842,4.3a.871.871,0,0,1,.764.172,1.016,1.016,0,0,1,.4.806V10a4,4,0,0,0,4,4h4.712a1.041,1.041,0,0,1,.816.4.884.884,0,0,1,.166.768Z" transform="translate(-0.027 -0.3)" fill="#bbc1d2"/>
      <path id="Path_821-32" data-name="Path 821" d="M23.651,7.446A10.073,10.073,0,0,0,16.582.372,2.1,2.1,0,0,0,16.038.3a2,2,0,0,0-2.019,2V7a3,3,0,0,0,3,3h4.719a2.008,2.008,0,0,0,1.913-2.554ZM21.153,8H17.015a1,1,0,0,1-1-1l-.008-4.693a.048.048,0,0,1,.025-.009h.026A8.072,8.072,0,0,1,21.734,8Z" transform="translate(-0.027 -0.3)" fill="#bbc1d2"/>
    </g>
    <g id="chart-pie-alt_1_33" data-name="chart-pie-alt (1)" transform="translate(261 560)" opacity="0.28">
      <path id="Path_820-33" data-name="Path 820" d="M18.713,12H14a2,2,0,0,1-2-2V5.274a3,3,0,0,0-1.166-2.383,2.871,2.871,0,0,0-2.481-.534,10.969,10.969,0,1,0,13.287,13.3,2.876,2.876,0,0,0-.533-2.485A3.055,3.055,0,0,0,18.713,12Zm.988,3.168A8.969,8.969,0,1,1,8.842,4.3a.871.871,0,0,1,.764.172,1.016,1.016,0,0,1,.4.806V10a4,4,0,0,0,4,4h4.712a1.041,1.041,0,0,1,.816.4.884.884,0,0,1,.166.768Z" transform="translate(-0.027 -0.3)" fill="#bbc1d2"/>
      <path id="Path_821-33" data-name="Path 821" d="M23.651,7.446A10.073,10.073,0,0,0,16.582.372,2.1,2.1,0,0,0,16.038.3a2,2,0,0,0-2.019,2V7a3,3,0,0,0,3,3h4.719a2.008,2.008,0,0,0,1.913-2.554ZM21.153,8H17.015a1,1,0,0,1-1-1l-.008-4.693a.048.048,0,0,1,.025-.009h.026A8.072,8.072,0,0,1,21.734,8Z" transform="translate(-0.027 -0.3)" fill="#bbc1d2"/>
    </g>
    <g id="chart-pie-alt_1_34" data-name="chart-pie-alt (1)" transform="translate(348 560)" opacity="0.28">
      <path id="Path_820-34" data-name="Path 820" d="M18.713,12H14a2,2,0,0,1-2-2V5.274a3,3,0,0,0-1.166-2.383,2.871,2.871,0,0,0-2.481-.534,10.969,10.969,0,1,0,13.287,13.3,2.876,2.876,0,0,0-.533-2.485A3.055,3.055,0,0,0,18.713,12Zm.988,3.168A8.969,8.969,0,1,1,8.842,4.3a.871.871,0,0,1,.764.172,1.016,1.016,0,0,1,.4.806V10a4,4,0,0,0,4,4h4.712a1.041,1.041,0,0,1,.816.4.884.884,0,0,1,.166.768Z" transform="translate(-0.027 -0.3)" fill="#bbc1d2"/>
      <path id="Path_821-34" data-name="Path 821" d="M23.651,7.446A10.073,10.073,0,0,0,16.582.372,2.1,2.1,0,0,0,16.038.3a2,2,0,0,0-2.019,2V7a3,3,0,0,0,3,3h4.719a2.008,2.008,0,0,0,1.913-2.554ZM21.153,8H17.015a1,1,0,0,1-1-1l-.008-4.693a.048.048,0,0,1,.025-.009h.026A8.072,8.072,0,0,1,21.734,8Z" transform="translate(-0.027 -0.3)" fill="#bbc1d2"/>
    </g>
    <g id="chart-pie-alt_1_35" data-name="chart-pie-alt (1)" transform="translate(435 560)" opacity="0.28">
      <path id="Path_820-35" data-name="Path 820" d="M18.713,12H14a2,2,0,0,1-2-2V5.274a3,3,0,0,0-1.166-2.383,2.871,2.871,0,0,0-2.481-.534,10.969,10.969,0,1,0,13.287,13.3,2.876,2.876,0,0,0-.533-2.485A3.055,3.055,0,0,0,18.713,12Zm.988,3.168A8.969,8.969,0,1,1,8.842,4.3a.871.871,0,0,1,.764.172,1.016,1.016,0,0,1,.4.806V10a4,4,0,0,0,4,4h4.712a1.041,1.041,0,0,1,.816.4.884.884,0,0,1,.166.768Z" transform="translate(-0.027 -0.3)" fill="#bbc1d2"/>
      <path id="Path_821-35" data-name="Path 821" d="M23.651,7.446A10.073,10.073,0,0,0,16.582.372,2.1,2.1,0,0,0,16.038.3a2,2,0,0,0-2.019,2V7a3,3,0,0,0,3,3h4.719a2.008,2.008,0,0,0,1.913-2.554ZM21.153,8H17.015a1,1,0,0,1-1-1l-.008-4.693a.048.048,0,0,1,.025-.009h.026A8.072,8.072,0,0,1,21.734,8Z" transform="translate(-0.027 -0.3)" fill="#bbc1d2"/>
    </g>
    <g id="chart-pie-alt_1_36" data-name="chart-pie-alt (1)" transform="translate(522 560)" opacity="0.28">
      <path id="Path_820-36" data-name="Path 820" d="M18.713,12H14a2,2,0,0,1-2-2V5.274a3,3,0,0,0-1.166-2.383,2.871,2.871,0,0,0-2.481-.534,10.969,10.969,0,1,0,13.287,13.3,2.876,2.876,0,0,0-.533-2.485A3.055,3.055,0,0,0,18.713,12Zm.988,3.168A8.969,8.969,0,1,1,8.842,4.3a.871.871,0,0,1,.764.172,1.016,1.016,0,0,1,.4.806V10a4,4,0,0,0,4,4h4.712a1.041,1.041,0,0,1,.816.4.884.884,0,0,1,.166.768Z" transform="translate(-0.027 -0.3)" fill="#bbc1d2"/>
      <path id="Path_821-36" data-name="Path 821" d="M23.651,7.446A10.073,10.073,0,0,0,16.582.372,2.1,2.1,0,0,0,16.038.3a2,2,0,0,0-2.019,2V7a3,3,0,0,0,3,3h4.719a2.008,2.008,0,0,0,1.913-2.554ZM21.153,8H17.015a1,1,0,0,1-1-1l-.008-4.693a.048.048,0,0,1,.025-.009h.026A8.072,8.072,0,0,1,21.734,8Z" transform="translate(-0.027 -0.3)" fill="#bbc1d2"/>
    </g>
  </g>
</svg>
