<svg id="Group_16548" data-name="Group 16548" xmlns="http://www.w3.org/2000/svg" width="97.621" height="27" viewBox="0 0 97.621 27">
  <g id="Group_164" data-name="Group 164" transform="translate(13.39 0) rotate(45)">
    <path id="Union_6" data-name="Union 6" d="M0,11.51v-4.5H4.5v4.5ZM0,2.248A2.248,2.248,0,1,1,2.248,4.5,2.248,2.248,0,0,1,0,2.248Z" transform="translate(7.378 0.27)" fill="#ffd500"/>
    <path id="Path_422" data-name="Path 422" d="M9.626,18.936A9.624,9.624,0,0,1,7.2,0V5.109a4.856,4.856,0,1,0,4.856,0V0A9.624,9.624,0,0,1,9.626,18.936Z" transform="translate(0 0)" fill="#052288"/>
  </g>
  <g id="Cynnent_Text_Logo" data-name="Cynnent Text Logo" transform="translate(27 7.902)">
    <path id="Cynnent_Text_Logo-2" data-name="Cynnent Text Logo" d="M13.559-81.8c3.434,0,5-2.1,6.05-4.448l-2.67-.783c-1.05,1.939-1.619,3.1-3.345,3.1-2.064,0-3.416-1.637-3.416-3.861,0-2.206,1.317-3.754,3.309-3.754,1.637,0,2.42,1.014,3.345,2.936l2.67-.908c-1.014-2.206-2.67-4.2-6-4.2C9.68-93.721,7.1-91.088,7.1-87.76,7.1-84.45,9.644-81.8,13.559-81.8ZM23.1-78.436a3.163,3.163,0,0,0,3.1-2.171l3.576-10.267H26.94l-2.171,6.495L22.7-90.874H19.893l2.972,8.292H24.11l-.178.73c-.248,1.05-.569,1.512-.836,1.512-.32,0-.445-.214-.463-.73a.176.176,0,0,0-.16-.178l-2.206-.213a.2.2,0,0,0-.148.053.2.2,0,0,0-.065.143v.339A2.786,2.786,0,0,0,23.1-78.436Zm7.313-12.135v8.594h2.6c0-4.786.872-7.171,2.527-7.171,1.459,0,1.459,1.495,1.459,2.1v5.071h2.6V-87.44a3.321,3.321,0,0,0-3.63-3.612c-2.171,0-2.954,2.544-2.954,4.609v-2.829l-.2-1.441q-.027-.16-.16-.16l-2.046.107A.2.2,0,0,0,30.409-90.571Zm10.16,0v8.594h2.6c0-4.786.872-7.171,2.527-7.171,1.459,0,1.459,1.495,1.459,2.1v5.071h2.6V-87.44a3.321,3.321,0,0,0-3.63-3.612c-2.171,0-2.954,2.544-2.954,4.609v-2.829l-.2-1.441q-.027-.16-.16-.16l-2.046.107A.2.2,0,0,0,40.569-90.571ZM55.053-81.8a4.58,4.58,0,0,0,4.27-3.025c.036-.089-.089-.16-.231-.16H57.028a.159.159,0,0,0-.142.089,1.91,1.91,0,0,1-1.833,1.228A1.91,1.91,0,0,1,53.042-85.7h6.353c.32-3.15-1.548-5.356-4.342-5.356a4.285,4.285,0,0,0-4.5,4.537A4.43,4.43,0,0,0,55.053-81.8Zm-1.975-5.267a1.817,1.817,0,0,1,1.975-2.1c1.1,0,1.868.712,1.886,2.1Zm7.153-3.5v8.594h2.6c0-4.786.872-7.171,2.527-7.171,1.459,0,1.459,1.495,1.459,2.1v5.071h2.6V-87.44a3.321,3.321,0,0,0-3.63-3.612c-2.171,0-2.954,2.544-2.954,4.609v-2.829l-.2-1.441q-.027-.16-.16-.16l-2.046.107A.2.2,0,0,0,60.231-90.571Zm14.2,8.754c1.673,0,3.292-.925,3.292-2.74v-1.032a.2.2,0,0,0-.2-.2l-2.206.107a.191.191,0,0,0-.178.178v.534c0,.569-.089,1.262-.712,1.262s-.712-.73-.712-1.262v-4.128h2.6a.168.168,0,0,0,.129-.049.168.168,0,0,0,.049-.129V-90.7a.168.168,0,0,0-.049-.129.168.168,0,0,0-.129-.049h-2.6V-93.4a.21.21,0,0,0-.1-.183.21.21,0,0,0-.207-.012l-2.152.961a.147.147,0,0,0-.089.142v.516c0,.872-.267,1.1-.89,1.1h-.6a.168.168,0,0,0-.129.049.168.168,0,0,0-.049.129v1.423a.168.168,0,0,0,.049.129.168.168,0,0,0,.129.049h1.441v4.537c0,1.815,1.637,2.741,3.309,2.741Z" transform="translate(-7.1 93.721)" fill="#5b6175"/>
  </g>
</svg>
